<mxfile host="app.diagrams.net" modified="2022-06-03T08:44:04.562Z" agent="5.0 (Windows NT 10.0; Win64; x64) AppleWebKit/537.36 (KHTML, like Gecko) Chrome/102.0.5005.63 Safari/537.36" etag="ISEbw72IVMfzkmbxQ60q" version="18.2.1" type="github">
  <diagram id="8dOqQhNxFz7nHlCJ9IUA" name="Page-1">
    <mxGraphModel dx="868" dy="482" grid="1" gridSize="10" guides="1" tooltips="1" connect="1" arrows="1" fold="1" page="1" pageScale="1" pageWidth="850" pageHeight="1100" math="0" shadow="0">
      <root>
        <mxCell id="0" />
        <mxCell id="1" parent="0" />
        <mxCell id="uQbY0OOqVsN9o2MsZS_4-6" value="" style="edgeStyle=orthogonalEdgeStyle;rounded=0;orthogonalLoop=1;jettySize=auto;html=1;" edge="1" parent="1" source="uQbY0OOqVsN9o2MsZS_4-2" target="uQbY0OOqVsN9o2MsZS_4-3">
          <mxGeometry relative="1" as="geometry" />
        </mxCell>
        <mxCell id="uQbY0OOqVsN9o2MsZS_4-2" value="" style="verticalLabelPosition=bottom;html=1;verticalAlign=top;align=center;strokeColor=none;fillColor=#00BEF2;shape=mxgraph.azure.mobile;pointerEvents=1;" vertex="1" parent="1">
          <mxGeometry x="40" y="130" width="35" height="50" as="geometry" />
        </mxCell>
        <mxCell id="uQbY0OOqVsN9o2MsZS_4-12" value="" style="edgeStyle=orthogonalEdgeStyle;rounded=0;orthogonalLoop=1;jettySize=auto;html=1;" edge="1" parent="1" source="uQbY0OOqVsN9o2MsZS_4-3" target="uQbY0OOqVsN9o2MsZS_4-7">
          <mxGeometry relative="1" as="geometry" />
        </mxCell>
        <mxCell id="uQbY0OOqVsN9o2MsZS_4-3" value="" style="sketch=0;points=[[0,0,0],[0.25,0,0],[0.5,0,0],[0.75,0,0],[1,0,0],[0,1,0],[0.25,1,0],[0.5,1,0],[0.75,1,0],[1,1,0],[0,0.25,0],[0,0.5,0],[0,0.75,0],[1,0.25,0],[1,0.5,0],[1,0.75,0]];outlineConnect=0;fontColor=#232F3E;gradientColor=#945DF2;gradientDirection=north;fillColor=#5A30B5;strokeColor=#ffffff;dashed=0;verticalLabelPosition=bottom;verticalAlign=top;align=center;html=1;fontSize=12;fontStyle=0;aspect=fixed;shape=mxgraph.aws4.resourceIcon;resIcon=mxgraph.aws4.api_gateway;" vertex="1" parent="1">
          <mxGeometry x="180" y="116" width="78" height="78" as="geometry" />
        </mxCell>
        <mxCell id="uQbY0OOqVsN9o2MsZS_4-5" value="" style="edgeStyle=orthogonalEdgeStyle;rounded=0;orthogonalLoop=1;jettySize=auto;html=1;" edge="1" parent="1" source="uQbY0OOqVsN9o2MsZS_4-4" target="uQbY0OOqVsN9o2MsZS_4-3">
          <mxGeometry relative="1" as="geometry" />
        </mxCell>
        <mxCell id="uQbY0OOqVsN9o2MsZS_4-4" value="" style="sketch=0;points=[[0,0,0],[0.25,0,0],[0.5,0,0],[0.75,0,0],[1,0,0],[0,1,0],[0.25,1,0],[0.5,1,0],[0.75,1,0],[1,1,0],[0,0.25,0],[0,0.5,0],[0,0.75,0],[1,0.25,0],[1,0.5,0],[1,0.75,0]];outlineConnect=0;fontColor=#232F3E;gradientColor=#F54749;gradientDirection=north;fillColor=#C7131F;strokeColor=#ffffff;dashed=0;verticalLabelPosition=bottom;verticalAlign=top;align=center;html=1;fontSize=12;fontStyle=0;aspect=fixed;shape=mxgraph.aws4.resourceIcon;resIcon=mxgraph.aws4.cognito;" vertex="1" parent="1">
          <mxGeometry x="180" width="78" height="78" as="geometry" />
        </mxCell>
        <mxCell id="uQbY0OOqVsN9o2MsZS_4-14" value="" style="edgeStyle=orthogonalEdgeStyle;rounded=0;orthogonalLoop=1;jettySize=auto;html=1;" edge="1" parent="1" source="uQbY0OOqVsN9o2MsZS_4-7" target="uQbY0OOqVsN9o2MsZS_4-13">
          <mxGeometry relative="1" as="geometry" />
        </mxCell>
        <mxCell id="uQbY0OOqVsN9o2MsZS_4-16" value="" style="edgeStyle=orthogonalEdgeStyle;rounded=0;orthogonalLoop=1;jettySize=auto;html=1;" edge="1" parent="1" source="uQbY0OOqVsN9o2MsZS_4-7" target="uQbY0OOqVsN9o2MsZS_4-15">
          <mxGeometry relative="1" as="geometry" />
        </mxCell>
        <mxCell id="uQbY0OOqVsN9o2MsZS_4-7" value="" style="outlineConnect=0;dashed=0;verticalLabelPosition=bottom;verticalAlign=top;align=center;html=1;shape=mxgraph.aws3.lambda_function;fillColor=#F58534;gradientColor=none;" vertex="1" parent="1">
          <mxGeometry x="350" y="119" width="69" height="72" as="geometry" />
        </mxCell>
        <mxCell id="uQbY0OOqVsN9o2MsZS_4-13" value="" style="outlineConnect=0;dashed=0;verticalLabelPosition=bottom;verticalAlign=top;align=center;html=1;shape=mxgraph.aws3.dynamo_db;fillColor=#2E73B8;gradientColor=none;" vertex="1" parent="1">
          <mxGeometry x="349" y="280" width="72" height="81" as="geometry" />
        </mxCell>
        <mxCell id="uQbY0OOqVsN9o2MsZS_4-22" value="" style="edgeStyle=orthogonalEdgeStyle;rounded=0;orthogonalLoop=1;jettySize=auto;html=1;" edge="1" parent="1" source="uQbY0OOqVsN9o2MsZS_4-15" target="uQbY0OOqVsN9o2MsZS_4-17">
          <mxGeometry relative="1" as="geometry" />
        </mxCell>
        <mxCell id="uQbY0OOqVsN9o2MsZS_4-24" value="" style="edgeStyle=orthogonalEdgeStyle;rounded=0;orthogonalLoop=1;jettySize=auto;html=1;" edge="1" parent="1" source="uQbY0OOqVsN9o2MsZS_4-15">
          <mxGeometry relative="1" as="geometry">
            <mxPoint x="559" y="27" as="targetPoint" />
          </mxGeometry>
        </mxCell>
        <mxCell id="uQbY0OOqVsN9o2MsZS_4-15" value="" style="sketch=0;points=[[0,0,0],[0.25,0,0],[0.5,0,0],[0.75,0,0],[1,0,0],[0,1,0],[0.25,1,0],[0.5,1,0],[0.75,1,0],[1,1,0],[0,0.25,0],[0,0.5,0],[0,0.75,0],[1,0.25,0],[1,0.5,0],[1,0.75,0]];outlineConnect=0;fontColor=#232F3E;gradientColor=#FF4F8B;gradientDirection=north;fillColor=#BC1356;strokeColor=#ffffff;dashed=0;verticalLabelPosition=bottom;verticalAlign=top;align=center;html=1;fontSize=12;fontStyle=0;aspect=fixed;shape=mxgraph.aws4.resourceIcon;resIcon=mxgraph.aws4.sns;" vertex="1" parent="1">
          <mxGeometry x="520" y="116" width="78" height="78" as="geometry" />
        </mxCell>
        <mxCell id="uQbY0OOqVsN9o2MsZS_4-25" style="edgeStyle=orthogonalEdgeStyle;rounded=0;orthogonalLoop=1;jettySize=auto;html=1;exitX=0.5;exitY=1;exitDx=0;exitDy=0;entryX=0.5;entryY=1;entryDx=0;entryDy=0;entryPerimeter=0;" edge="1" parent="1" source="uQbY0OOqVsN9o2MsZS_4-17" target="uQbY0OOqVsN9o2MsZS_4-2">
          <mxGeometry relative="1" as="geometry" />
        </mxCell>
        <mxCell id="uQbY0OOqVsN9o2MsZS_4-17" value="" style="strokeColor=#dddddd;shadow=1;strokeWidth=1;rounded=1;absoluteArcSize=1;arcSize=2;" vertex="1" parent="1">
          <mxGeometry x="680" y="125" width="100" height="60" as="geometry" />
        </mxCell>
        <mxCell id="uQbY0OOqVsN9o2MsZS_4-18" value="Firebase" style="sketch=0;dashed=0;connectable=0;html=1;fillColor=#5184F3;strokeColor=none;shape=mxgraph.gcp2.firebase;part=1;labelPosition=right;verticalLabelPosition=middle;align=left;verticalAlign=middle;spacingLeft=5;fontColor=#999999;fontSize=12;" vertex="1" parent="uQbY0OOqVsN9o2MsZS_4-17">
          <mxGeometry width="32.4" height="45" relative="1" as="geometry">
            <mxPoint x="5" y="7" as="offset" />
          </mxGeometry>
        </mxCell>
        <mxCell id="uQbY0OOqVsN9o2MsZS_4-21" value="" style="outlineConnect=0;dashed=0;verticalLabelPosition=bottom;verticalAlign=top;align=center;html=1;shape=mxgraph.aws3.kinesis;fillColor=#F58534;gradientColor=none;" vertex="1" parent="1">
          <mxGeometry x="525.25" width="67.5" height="81" as="geometry" />
        </mxCell>
        <mxCell id="uQbY0OOqVsN9o2MsZS_4-26" value="Cognito Auth&lt;br&gt;" style="text;html=1;align=center;verticalAlign=middle;resizable=0;points=[];autosize=1;strokeColor=none;fillColor=none;" vertex="1" parent="1">
          <mxGeometry x="100" y="10" width="80" height="20" as="geometry" />
        </mxCell>
        <mxCell id="uQbY0OOqVsN9o2MsZS_4-27" value="Patient app&lt;br&gt;" style="text;html=1;align=center;verticalAlign=middle;resizable=0;points=[];autosize=1;strokeColor=none;fillColor=none;" vertex="1" parent="1">
          <mxGeometry x="17.5" y="105" width="80" height="20" as="geometry" />
        </mxCell>
        <mxCell id="uQbY0OOqVsN9o2MsZS_4-28" value="API Gateway" style="text;html=1;align=center;verticalAlign=middle;resizable=0;points=[];autosize=1;strokeColor=none;fillColor=none;" vertex="1" parent="1">
          <mxGeometry x="174" y="210" width="90" height="20" as="geometry" />
        </mxCell>
        <mxCell id="uQbY0OOqVsN9o2MsZS_4-29" value="Matcher Function" style="text;html=1;align=center;verticalAlign=middle;resizable=0;points=[];autosize=1;strokeColor=none;fillColor=none;" vertex="1" parent="1">
          <mxGeometry x="330" y="96" width="110" height="20" as="geometry" />
        </mxCell>
        <mxCell id="uQbY0OOqVsN9o2MsZS_4-30" value="Dynamo DB" style="text;html=1;align=center;verticalAlign=middle;resizable=0;points=[];autosize=1;strokeColor=none;fillColor=none;" vertex="1" parent="1">
          <mxGeometry x="340" y="370" width="80" height="20" as="geometry" />
        </mxCell>
        <mxCell id="uQbY0OOqVsN9o2MsZS_4-31" value="SNS" style="text;html=1;align=center;verticalAlign=middle;resizable=0;points=[];autosize=1;strokeColor=none;fillColor=none;" vertex="1" parent="1">
          <mxGeometry x="540" y="210" width="40" height="20" as="geometry" />
        </mxCell>
        <mxCell id="uQbY0OOqVsN9o2MsZS_4-32" value="FCM" style="text;html=1;align=center;verticalAlign=middle;resizable=0;points=[];autosize=1;strokeColor=none;fillColor=none;" vertex="1" parent="1">
          <mxGeometry x="710" y="210" width="40" height="20" as="geometry" />
        </mxCell>
        <mxCell id="uQbY0OOqVsN9o2MsZS_4-33" value="Analytics" style="text;html=1;align=center;verticalAlign=middle;resizable=0;points=[];autosize=1;strokeColor=none;fillColor=none;" vertex="1" parent="1">
          <mxGeometry x="460" width="60" height="20" as="geometry" />
        </mxCell>
        <mxCell id="uQbY0OOqVsN9o2MsZS_4-34" value="/consult" style="text;html=1;align=center;verticalAlign=middle;resizable=0;points=[];autosize=1;strokeColor=none;fillColor=none;" vertex="1" parent="1">
          <mxGeometry x="90" y="130" width="60" height="20" as="geometry" />
        </mxCell>
      </root>
    </mxGraphModel>
  </diagram>
</mxfile>
